<svg xmlns="http://www.w3.org/2000/svg" xmlns:xlink="http://www.w3.org/1999/xlink" width="32" height="29"><rect id="backgroundrect" width="100%" height="100%" x="0" y="0" fill="none" stroke="none"/>
    
<g class="currentLayer" style=""><title>Layer 1</title><path fill-rule="evenodd" fill="rgb(255, 255, 255)" d="M31.899,7.565 L26.493,19.977 C26.296,20.41 25.882,20.686 25.409,20.686 L10.554,20.686 C10.021,20.686 9.548,20.331 9.41,19.819 L4.577,2.364 L1.184,2.364 C0.533,2.364 0,1.832 0,1.182 C0,0.532 0.533,0 1.184,0 L5.464,0 C5.997,0 6.471,0.35400000000000004 6.609,0.8670000000000001 L11.442,18.322 L24.62,18.322 L28.999,8.274000000000001 L14.401,8.274000000000001 C13.75,8.274000000000001 13.217,7.742 13.217,7.092 C13.217,6.442 13.75,5.91 14.401,5.91 L30.814,5.91 C31.208,5.91 31.583,6.107 31.8,6.442 C32.017,6.777 32.057,7.191 31.899,7.565 zM9.429,23.641000000000002 C10.909,23.641000000000002 12.112,24.843 12.112,26.32 C12.112,27.798000000000002 10.909,29 9.429,29 C7.95,29 6.747,27.798000000000002 6.747,26.32 C6.747,24.843 7.95,23.641000000000002 9.429,23.641000000000002 zM26.02,23.641000000000002 C27.5,23.543 28.782,24.666 28.881,26.124 C28.92,26.852 28.703,27.542 28.23,28.074 C27.756,28.626 27.105,28.941 26.395,29 C26.336,29 26.257,29 26.198,29 C24.797,29 23.633,27.897 23.535,26.498 C23.436,25.04 24.541,23.74 26.02,23.641000000000002 z" id="svg_1" class=""/></g></svg>